<svg width="64" height="64" viewBox="0 0 64 64" fill="none" xmlns="http://www.w3.org/2000/svg" role="img" aria-label="Ahenk Live">
  <defs>
    <linearGradient id="al" x1="12" y1="22" x2="52" y2="58" gradientUnits="userSpaceOnUse">
      <stop stop-color="#9cf0ff"/>
      <stop offset="1" stop-color="#00b8d4"/>
    </linearGradient>
  </defs>
  <rect width="64" height="64" rx="16" fill="#0A111F"/>
  <rect x="0.6" y="0.6" width="62.8" height="62.8" rx="15.4" fill="none" stroke="#00E5FF" stroke-opacity="0.25"/>
  <!-- wifi arcs -->
  <path d="M22 19 A14 14 0 0 1 42 19" fill="none" stroke="url(#al)" stroke-width="3" stroke-linecap="round"/>
  <path d="M26.5 23.5 A8 8 0 0 1 37.5 23.5" fill="none" stroke="url(#al)" stroke-width="3" stroke-linecap="round"/>
  <circle cx="32" cy="28" r="2.2" fill="#F2C94C"/>
  <!-- open book -->
  <path d="M32 34 C27 31 21 31 16 33 L16 49 C21 47 27 47 32 50 C37 47 43 47 48 49 L48 33 C43 31 37 31 32 34 Z" fill="none" stroke="url(#al)" stroke-width="3" stroke-linejoin="round"/>
  <path d="M32 34 L32 50" stroke="url(#al)" stroke-width="3" stroke-linecap="round"/>
</svg>
